<?xml version="1.0" encoding="UTF-8"?>
<svg width="1308px" height="484px" viewBox="0 0 1308 484" version="1.1" xmlns="http://www.w3.org/2000/svg" xmlns:xlink="http://www.w3.org/1999/xlink">
    <title>EDD21EE0-A0F5-46E7-9145-BF71682F85AC</title>
    <defs>
        <path d="M220.5,0 L220.5,428" id="path-1"></path>
        <filter x="-750.0%" y="-1.4%" width="1600.0%" height="103.7%" filterUnits="objectBoundingBox" id="filter-2">
            <feMorphology radius="1" operator="dilate" in="SourceAlpha" result="shadowSpreadOuter1"></feMorphology>
            <feOffset dx="0" dy="2" in="shadowSpreadOuter1" result="shadowOffsetOuter1"></feOffset>
            <feMorphology radius="1" operator="erode" in="SourceAlpha" result="shadowInner"></feMorphology>
            <feOffset dx="0" dy="2" in="shadowInner" result="shadowInner"></feOffset>
            <feComposite in="shadowOffsetOuter1" in2="shadowInner" operator="out" result="shadowOffsetOuter1"></feComposite>
            <feGaussianBlur stdDeviation="2" in="shadowOffsetOuter1" result="shadowBlurOuter1"></feGaussianBlur>
            <feColorMatrix values="0 0 0 0 1   0 0 0 0 1   0 0 0 0 1  0 0 0 1 0" type="matrix" in="shadowBlurOuter1"></feColorMatrix>
        </filter>
        <path d="M328.5,0 L328.5,428" id="path-3"></path>
        <filter x="-750.0%" y="-1.4%" width="1600.0%" height="103.7%" filterUnits="objectBoundingBox" id="filter-4">
            <feMorphology radius="1" operator="dilate" in="SourceAlpha" result="shadowSpreadOuter1"></feMorphology>
            <feOffset dx="0" dy="2" in="shadowSpreadOuter1" result="shadowOffsetOuter1"></feOffset>
            <feMorphology radius="1" operator="erode" in="SourceAlpha" result="shadowInner"></feMorphology>
            <feOffset dx="0" dy="2" in="shadowInner" result="shadowInner"></feOffset>
            <feComposite in="shadowOffsetOuter1" in2="shadowInner" operator="out" result="shadowOffsetOuter1"></feComposite>
            <feGaussianBlur stdDeviation="2" in="shadowOffsetOuter1" result="shadowBlurOuter1"></feGaussianBlur>
            <feColorMatrix values="0 0 0 0 1   0 0 0 0 1   0 0 0 0 1  0 0 0 1 0" type="matrix" in="shadowBlurOuter1"></feColorMatrix>
        </filter>
        <path d="M436.5,0 L436.5,428" id="path-5"></path>
        <filter x="-750.0%" y="-1.4%" width="1600.0%" height="103.7%" filterUnits="objectBoundingBox" id="filter-6">
            <feMorphology radius="1" operator="dilate" in="SourceAlpha" result="shadowSpreadOuter1"></feMorphology>
            <feOffset dx="0" dy="2" in="shadowSpreadOuter1" result="shadowOffsetOuter1"></feOffset>
            <feMorphology radius="1" operator="erode" in="SourceAlpha" result="shadowInner"></feMorphology>
            <feOffset dx="0" dy="2" in="shadowInner" result="shadowInner"></feOffset>
            <feComposite in="shadowOffsetOuter1" in2="shadowInner" operator="out" result="shadowOffsetOuter1"></feComposite>
            <feGaussianBlur stdDeviation="2" in="shadowOffsetOuter1" result="shadowBlurOuter1"></feGaussianBlur>
            <feColorMatrix values="0 0 0 0 1   0 0 0 0 1   0 0 0 0 1  0 0 0 1 0" type="matrix" in="shadowBlurOuter1"></feColorMatrix>
        </filter>
        <text id="text-7" font-family="Exo-ExtraLight, Exo ExtraLight" font-size="20" font-weight="normal" fill="#FFFFFF">
            <tspan x="228.8" y="20">2011</tspan>
        </text>
        <filter x="-17.5%" y="-18.5%" width="135.0%" height="151.9%" filterUnits="objectBoundingBox" id="filter-8">
            <feOffset dx="0" dy="2" in="SourceAlpha" result="shadowOffsetOuter1"></feOffset>
            <feGaussianBlur stdDeviation="2" in="shadowOffsetOuter1" result="shadowBlurOuter1"></feGaussianBlur>
            <feColorMatrix values="0 0 0 0 1   0 0 0 0 1   0 0 0 0 1  0 0 0 1 0" type="matrix" in="shadowBlurOuter1"></feColorMatrix>
        </filter>
        <text id="text-9" font-family="Exo-ExtraLight, Exo ExtraLight" font-size="20" font-weight="normal" fill="#FFFFFF">
            <tspan x="335.41" y="20">2012</tspan>
        </text>
        <filter x="-15.6%" y="-18.5%" width="131.1%" height="151.9%" filterUnits="objectBoundingBox" id="filter-10">
            <feOffset dx="0" dy="2" in="SourceAlpha" result="shadowOffsetOuter1"></feOffset>
            <feGaussianBlur stdDeviation="2" in="shadowOffsetOuter1" result="shadowBlurOuter1"></feGaussianBlur>
            <feColorMatrix values="0 0 0 0 1   0 0 0 0 1   0 0 0 0 1  0 0 0 1 0" type="matrix" in="shadowBlurOuter1"></feColorMatrix>
        </filter>
        <linearGradient x1="-2.22044605e-14%" y1="50%" x2="2.80692808%" y2="50%" id="linearGradient-11">
            <stop stop-color="#5E81AC" offset="0%"></stop>
            <stop stop-color="#FF5E52" offset="100%"></stop>
        </linearGradient>
    </defs>
    <g id="Page-1" stroke="none" stroke-width="1" fill="none" fill-rule="evenodd">
        <g id="Desktop-HD-Copy-12" transform="translate(-67.000000, -253.000000)">
            <g id="plan" transform="translate(67.000000, 255.000000)">
                <g id="lines" opacity="0.334960938" transform="translate(38.000000, 47.000000)" stroke-linecap="square">
                    <line x1="0.5" y1="0" x2="0.5" y2="428" id="Line-8" stroke="#D8DEE9"></line>
                    <line x1="110.5" y1="0" x2="110.5" y2="428" id="Line-8-Copy" stroke="#D8DEE9"></line>
                    <g id="Line-8-Copy-2">
                        <use fill="black" fill-opacity="1" filter="url(#filter-2)" xlink:href="#path-1"></use>
                        <use stroke="#FFFFFF" stroke-width="2" xlink:href="#path-1"></use>
                    </g>
                    <g id="Line-8-Copy-3">
                        <use fill="black" fill-opacity="1" filter="url(#filter-4)" xlink:href="#path-3"></use>
                        <use stroke="#FFFFFF" stroke-width="2" xlink:href="#path-3"></use>
                    </g>
                    <g id="Line-8-Copy-4">
                        <use fill="black" fill-opacity="1" filter="url(#filter-6)" xlink:href="#path-5"></use>
                        <use stroke="#FFFFFF" stroke-width="2" xlink:href="#path-5"></use>
                    </g>
                    <line x1="546.5" y1="0" x2="546.5" y2="428" id="Line-8-Copy-5" stroke="#D8DEE9"></line>
                    <line x1="656.5" y1="0" x2="656.5" y2="428" id="Line-8-Copy-6" stroke="#D8DEE9"></line>
                    <line x1="764.5" y1="0" x2="764.5" y2="428" id="Line-8-Copy-7" stroke="#D8DEE9"></line>
                    <line x1="873.5" y1="0" x2="873.5" y2="428" id="Line-8-Copy-8" stroke="#D8DEE9"></line>
                    <line x1="981.5" y1="0" x2="981.5" y2="428" id="Line-8-Copy-9" stroke="#D8DEE9"></line>
                    <line x1="1091.5" y1="0" x2="1091.5" y2="428" id="Line-8-Copy-10" stroke="#D8DEE9"></line>
                    <line x1="1201.5" y1="0" x2="1201.5" y2="428" id="Line-8-Copy-11" stroke="#D8DEE9"></line>
                </g>
                <text id="2-mois" font-family="Exo-Regular, Exo" font-size="14" font-weight="normal" fill="#D8DEE9">
                    <tspan x="754.167" y="233">2 mois</tspan>
                </text>
                <g id="dates" transform="translate(64.000000, 0.000000)">
                    <text id="2009" font-family="Exo-ExtraLight, Exo ExtraLight" font-size="20" font-weight="normal" fill="#D8DEE9">
                        <tspan x="0.02" y="20">2009</tspan>
                    </text>
                    <text id="2010" font-family="Exo-ExtraLight, Exo ExtraLight" font-size="20" font-weight="normal" fill="#D8DEE9">
                        <tspan x="116.77" y="20">2010</tspan>
                    </text>
                    <g id="2011" fill="#FFFFFF" fill-opacity="1">
                        <use filter="url(#filter-8)" xlink:href="#text-7"></use>
                        <use xlink:href="#text-7"></use>
                    </g>
                    <g id="2012" fill="#FFFFFF" fill-opacity="1">
                        <use filter="url(#filter-10)" xlink:href="#text-9"></use>
                        <use xlink:href="#text-9"></use>
                    </g>
                    <text id="2013" font-family="Exo-ExtraLight, Exo ExtraLight" font-size="20" font-weight="normal" fill="#D8DEE9">
                        <tspan x="444.48" y="20">2013</tspan>
                    </text>
                    <text id="2014" font-family="Exo-ExtraLight, Exo ExtraLight" font-size="20" font-weight="normal" fill="#D8DEE9">
                        <tspan x="552.56" y="20">2014</tspan>
                    </text>
                    <text id="2016" font-family="Exo-ExtraLight, Exo ExtraLight" font-size="20" font-weight="normal" fill="#D8DEE9">
                        <tspan x="766.05" y="20">2016</tspan>
                    </text>
                    <text id="2015" font-family="Exo-ExtraLight, Exo ExtraLight" font-size="20" font-weight="normal" fill="#D8DEE9">
                        <tspan x="659.94" y="20">2015</tspan>
                    </text>
                    <text id="2017" font-family="Exo-ExtraLight, Exo ExtraLight" font-size="20" font-weight="normal" fill="#D8DEE9">
                        <tspan x="882.99" y="20">2017</tspan>
                    </text>
                    <text id="2018" font-family="Exo-ExtraLight, Exo ExtraLight" font-size="20" font-weight="normal" fill="#D8DEE9">
                        <tspan x="989.86" y="20">2018</tspan>
                    </text>
                    <text id="2019" font-family="Exo-ExtraLight, Exo ExtraLight" font-size="20" font-weight="normal" fill="#D8DEE9">
                        <tspan x="1096.05" y="20">2019</tspan>
                    </text>
                </g>
                <g id="end" transform="translate(704.000000, 186.000000)">
                    <line x1="103" y1="61" x2="533" y2="61" id="Line-4-Copy-2" stroke="url(#linearGradient-11)" stroke-width="4" stroke-linecap="round"></line>
                    <line x1="32" y1="61" x2="41.2013272" y2="61" id="Line-4-Copy-3" stroke="#5E81AC" stroke-width="4" stroke-linecap="round"></line>
                    <text id="Acseo" font-family="Exo-Regular, Exo" font-size="14" font-weight="normal" fill="#D8DEE9">
                        <tspan x="52.526" y="96">Acseo</tspan>
                    </text>
                    <line x1="10" y1="43.1670092" x2="10" y2="78.5010275" id="Line-9" stroke="#5E81AC" stroke-width="3" stroke-linecap="round" transform="translate(10.000000, 60.667009) rotate(30.000000) translate(-10.000000, -60.667009) "></line>
                    <line x1="31" y1="43.1670092" x2="31" y2="78.5010275" id="Line-9" stroke="#5E81AC" stroke-width="3" stroke-linecap="round" transform="translate(31.000000, 60.667009) rotate(30.000000) translate(-31.000000, -60.667009) "></line>
                    <g id="Group-9-Copy" transform="translate(88.500000, 91.500000) scale(-1, 1) translate(-88.500000, -91.500000) translate(74.000000, 61.000000)" stroke="#5E81AC" stroke-width="4">
                        <path d="M29,38 L29,52 C29,56.9705627 27.2011441,61 24.9821429,61 L4,61" id="Shape" transform="translate(16.500000, 49.500000) scale(-1, 1) translate(-16.500000, -49.500000) "></path>
                        <path d="M4,0 L4,30.6330275 L4,44.2477064 C4,49.0814647 2.209139,53 0,53" id="Shape-Copy" transform="translate(2.000000, 26.500000) scale(-1, 1) rotate(-180.000000) translate(-2.000000, -26.500000) "></path>
                    </g>
                    <g id="Group-9" transform="translate(41.000000, 61.000000)" stroke="#5E81AC" stroke-width="4">
                        <path d="M31,38 L31,52 C31,56.9705627 29.1867532,61 26.95,61 L4,61" id="Shape" transform="translate(17.500000, 49.500000) scale(-1, 1) translate(-17.500000, -49.500000) "></path>
                        <path d="M4,0 L4,30.6330275 L4,44.2477064 C4,49.0814647 2.209139,53 0,53" id="Shape-Copy" transform="translate(2.000000, 26.500000) scale(-1, 1) rotate(-180.000000) translate(-2.000000, -26.500000) "></path>
                    </g>
                    <text id="Depuis-4-ans" font-family="Exo-Regular, Exo" font-size="14" font-weight="normal" fill="#D8DEE9">
                        <tspan x="272.875" y="89">Depuis 4 ans</tspan>
                    </text>
                    <g id="Group-10" transform="translate(62.000000, 112.000000)">
                        <circle id="Oval-Copy" fill="#D8DEE9" cx="10.5" cy="10.5" r="10.5"></circle>
                        <circle id="Oval-Copy-3" fill="#4C566A" cx="10.5" cy="10.5" r="5.5"></circle>
                    </g>
                    <path d="M52,60.5 L79.252809,60.5 L94,60.5" id="Line" stroke="#D8DEE9" stroke-width="3" stroke-linecap="square" stroke-dasharray="6,5" transform="translate(73.000000, 60.500000) scale(1, -1) translate(-73.000000, -60.500000) "></path>
                    <text id="Letsignit" font-family="Exo-Regular, Exo" font-size="14" font-weight="normal" fill="#D8DEE9">
                        <tspan x="514.469" y="14">Letsignit</tspan>
                    </text>
                    <g id="Group-10-Copy" transform="translate(523.000000, 42.000000)">
                        <circle id="Oval-Copy" fill="#D8DEE9" cx="19" cy="19" r="19"></circle>
                        <circle id="Oval-Copy-3" fill="#4C566A" cx="19.5" cy="19.5" r="9.5"></circle>
                    </g>
                </g>
                <path d="M814,255.5 L1078.0927,255.5 L1221,255.5" id="Line" stroke="#D8DEE9" stroke-width="3" stroke-linecap="square" stroke-dasharray="6,5"></path>
                <line x1="55" y1="247" x2="279" y2="247" id="Line-4" stroke="#5E81AC" stroke-width="4" stroke-linecap="round"></line>
                <line x1="279" y1="247" x2="713" y2="247" id="Line-4-Copy" stroke="#5E81AC" stroke-width="4" stroke-linecap="round"></line>
                <text id="BTS-IRIS-2009---2011" font-family="Exo-Regular, Exo" font-size="14" font-weight="normal" fill="#D8DEE9">
                    <tspan x="12.303" y="290">BTS IRIS</tspan>
                    <tspan x="0.333" y="309">2009 - 2011</tspan>
                </text>
                <g id="oxytronic-licence" transform="translate(261.000000, 55.000000)">
                    <text id="4Tech-/-Licence-pro" font-family="Exo-Regular, Exo" font-size="14" font-weight="normal" fill="#D8DEE9">
                        <tspan x="23.127" y="360">4Tech / Licence pro SIL NTI</tspan>
                        <tspan x="65.33" y="379">en alternance</tspan>
                    </text>
                    <text id="Ingésup-Expert-en-sy" font-family="Exo-Regular, Exo" font-size="14" font-weight="normal" fill="#D8DEE9">
                        <tspan x="298.765" y="14">Ingésup</tspan>
                        <tspan x="218.755" y="33">Expert en système d'information</tspan>
                    </text>
                    <g id="Group-9" transform="translate(0.000000, 192.000000)" stroke="#5E81AC" stroke-width="4">
                        <path d="M138,80 L138,108 C138,117.941125 129.941125,126 120,126 L18,126" id="Shape" transform="translate(78.000000, 103.000000) scale(-1, 1) translate(-78.000000, -103.000000) "></path>
                        <path d="M18,0 L18,63 L18,91 C18,100.941125 9.9411255,109 0,109" id="Shape-Copy" transform="translate(9.000000, 54.500000) scale(-1, 1) rotate(-180.000000) translate(-9.000000, -54.500000) "></path>
                    </g>
                    <g id="Group-9-Copy" transform="translate(152.000000, 255.000000) scale(-1, 1) translate(-152.000000, -255.000000) translate(87.000000, 192.000000)" stroke="#5E81AC" stroke-width="4">
                        <path d="M130,80 L130,108 C130,117.941125 121.941125,126 112,126 L18,126" id="Shape" transform="translate(74.000000, 103.000000) scale(-1, 1) translate(-74.000000, -103.000000) "></path>
                        <path d="M18,0 L18,63 L18,91 C18,100.941125 9.9411255,109 0,109" id="Shape-Copy" transform="translate(9.000000, 54.500000) scale(-1, 1) rotate(-180.000000) translate(-9.000000, -54.500000) "></path>
                    </g>
                    <text id="Oxytronic" font-family="Exo-Regular, Exo" font-size="14" font-weight="normal" fill="#D8DEE9">
                        <tspan x="79.207" y="241">Oxytronic</tspan>
                    </text>
                    <text id="2-ans" font-family="Exo-Regular, Exo" font-size="14" font-weight="normal" fill="#D8DEE9">
                        <tspan x="92.528" y="169">2 ans</tspan>
                    </text>
                    <g id="timeline/dot" transform="translate(91.000000, 299.000000)">
                        <circle id="Oval" fill="#D8DEE9" cx="19" cy="19" r="19"></circle>
                        <circle id="Oval-Copy-2" fill="#4C566A" cx="19.5" cy="19.5" r="9.5"></circle>
                    </g>
                    <path d="M18.5,183 L134.648876,183 L197.5,183" id="Line" stroke="#D8DEE9" stroke-width="3" stroke-linecap="square" stroke-dasharray="6,5"></path>
                </g>
                <g id="NS-ingesup" transform="translate(481.000000, 121.000000)">
                    <g id="Group-9" transform="translate(69.000000, 63.000000) scale(1, -1) translate(-69.000000, -63.000000) " stroke="#5E81AC" stroke-width="4">
                        <path d="M138,80 L138,108 C138,117.941125 129.941125,126 120,126 L18,126" id="Shape" transform="translate(78.000000, 103.000000) scale(-1, 1) translate(-78.000000, -103.000000) "></path>
                        <path d="M18,0 L18,63 L18,91 C18,100.941125 9.9411255,109 0,109" id="Shape-Copy" transform="translate(9.000000, 54.500000) scale(-1, 1) rotate(-180.000000) translate(-9.000000, -54.500000) "></path>
                    </g>
                    <g id="Group-9-Copy" transform="translate(123.500000, 63.000000) scale(-1, -1) translate(-123.500000, -63.000000) translate(30.000000, 0.000000)" stroke="#5E81AC" stroke-width="4">
                        <path d="M187,80 L187,108 C187,117.941125 178.941125,126 169,126 L18,126" id="Shape" transform="translate(102.500000, 103.000000) scale(-1, 1) translate(-102.500000, -103.000000) "></path>
                        <path d="M18,0 L18,63 L18,91 C18,100.941125 9.9411255,109 0,109" id="Shape-Copy" transform="translate(9.000000, 54.500000) scale(-1, 1) rotate(-180.000000) translate(-9.000000, -54.500000) "></path>
                    </g>
                    <text id="Natural-Solutions" font-family="Exo-Regular, Exo" font-size="14" font-weight="normal" fill="#D8DEE9">
                        <tspan x="52.972" y="83">Natural Solutions</tspan>
                    </text>
                </g>
                <path d="M500,256 L616.148876,256 L679,256" id="Line" stroke="#D8DEE9" stroke-width="3" stroke-linecap="square" stroke-dasharray="6,5"></path>
                <text id="2-ans" font-family="Exo-Regular, Exo" font-size="14" font-weight="normal" fill="#D8DEE9">
                    <tspan x="572.528" y="272">2 ans</tspan>
                </text>
                <g id="timeline/dot" transform="translate(571.000000, 102.000000)">
                    <circle id="Oval" fill="#D8DEE9" cx="19" cy="19" r="19"></circle>
                    <circle id="Oval-Copy-2" fill="#4C566A" cx="19.5" cy="19.5" r="9.5"></circle>
                </g>
            </g>
        </g>
    </g>
</svg>